<?xml version="1.0" encoding="UTF-8" standalone="no"?>
<svg
   id="Layer_1"
   data-name="Layer 1"
   viewBox="0 0 160.87 25.43"
   version="1.1"
   width="160.87"
   height="25.43"
   xmlns="http://www.w3.org/2000/svg"
   xmlns:svg="http://www.w3.org/2000/svg">
  <defs
     id="defs1">
    <style
       id="style1">
      .cls-1 {
        fill: #fff;
      }

      .cls-2 {
        fill: #e21936;
      }
    </style>
  </defs>
  <path
     class="cls-1"
     d="M 0,12.71 C 0,4.35 5,0 11.18,0 c 4,0 5.82,1.11 6.89,2 V 7.29 C 16.78,5.12 14.38,3.86 11.86,4.04 c -4.5,0 -7.07,2.93 -7.07,8.46 0,5.53 2.5,8.89 7.07,8.89 2.44,0.15 4.78,-0.95 6.21,-2.93 v 4.61 c -1.32,1.46 -3.86,2.36 -6.71,2.36 C 4.43,25.43 0,21.21 0,12.71 Z"
     id="path1" />
  <path
     class="cls-1"
     d="m 25.79,15.82 h -0.25 v 9 H 20.82 V 0.57 h 6.86 c 5.64,0 9.5,2 9.5,7.21 0,4.07 -2.54,6.82 -6.46,7.71 l 8.32,9.36 h -5.61 c 0,0 -7.64,-9.03 -7.64,-9.03 z m 1.89,-3.32 c 3,0 4.71,-1.43 4.71,-4.25 0,-2.82 -1.71,-3.93 -4.71,-3.93 h -2.14 v 8.18 z"
     id="path2" />
  <path
     class="cls-1"
     d="M 44.4,14.89 36.47,0.57 h 5.21 L 46.97,10.78 52.4,0.57 h 4.68 l -8,14.32 v 10 H 44.4 Z"
     id="path3" />
  <path
     class="cls-1"
     d="m 58.19,0.57 h 7 c 7.11,0 10.07,2.93 10.07,7.86 0,4.93 -3,8.93 -10.07,8.93 h -1.11 v -3.61 h 1.14 c 3.64,0 5.29,-1.89 5.29,-4.79 0,-2.9 -1.61,-4.64 -5.32,-4.64 H 62.9 v 20.54 h -4.71 c 0,0 0,-24.29 0,-24.29 z"
     id="path4" />
  <path
     class="cls-1"
     d="m 83.04,4.61 h -7 v -4 h 18.64 v 4 h -6.93 v 20.25 h -4.71 z"
     id="path5" />
  <path
     class="cls-1"
     d="M 94.12,12.71 C 94.12,4.35 100.05,0 106.05,0 c 7.07,0 11.93,4.36 11.93,12.71 0,8.35 -5.93,12.71 -11.93,12.71 -7.07,0.01 -11.93,-4.35 -11.93,-12.71 z m 19.07,0.18 c 0,-5.75 -2.75,-8.89 -7.14,-8.89 -4.39,0 -7.14,3.11 -7.14,8.5 0,5.75 2.75,8.93 7.14,8.93 4.39,0 7.15,-3.15 7.15,-8.54 z"
     id="path6" />
  <polygon
     class="cls-2"
     points="131.44,15.78 125.62,15.78 130.84,0.74 126.51,0.74 119.63,19.54 119.63,20 131.44,20 131.44,24.86 135.76,24.86 135.76,20 138.32,20 138.32,15.78 135.76,15.78 135.76,6.17 131.44,6.17 "
     id="polygon6" />
  <path
     class="cls-2"
     d="m 151.43,0.74 h -4.85 l 0.85,2.45 -8.57,21.67 h 4.9 l 1.89,-5 h 8.43 v 0.1 l 1.89,4.93 h 4.9 z m -3.72,15 v -0.1 l -0.1,-0.14 -2.29,-1.78 0.52,-0.19 v 0 l 0.09,-0.14 v -0.15 l -0.42,-1.4 1.17,0.12 h 0.28 l 0.14,-0.19 0.16,-0.48 1,1.21 0.06,0.05 h 0.13 v -0.14 l -0.49,-3.07 0.64,0.44 h 0.24 l 0.14,-0.1 0.1,-0.09 0.7,-1.84 0.66,1.84 0.1,0.09 0.14,0.1 h 0.24 l 0.64,-0.44 -0.49,3.07 v 0.14 h 0.13 l 0.06,-0.05 1,-1.21 0.16,0.48 0.14,0.19 h 0.28 l 1.12,-0.19 -0.42,1.4 v 0.15 l 0.09,0.14 v 0 l 0.52,0.19 -2.29,1.78 -0.1,0.14 v 0.1 z"
     id="path7" />
</svg>
