<svg xmlns="http://www.w3.org/2000/svg" width="73" height="57" fill="none" viewBox="0 0 73 57">
  <path fill="#02E3F0" d="M58.673 17.843c.08 3.018-.553 5.89-1.746 8.457 3.843 1.82 6.494 5.67 6.494 10.125 0 6.21-5.15 11.244-11.502 11.244H36.316a19.024 19.024 0 0 1-2.672 3.93 19.027 19.027 0 0 1-6.091 4.616h24.366c11.18 0 20.243-8.86 20.243-19.79 0-8.615-5.63-15.945-13.492-18.662l.003.08Z"/>
  <path fill="url(#a)" d="M47.427 14.95a6.485 6.485 0 0 0 5.53-1.816 6.396 6.396 0 0 0 1.771-3.287 18.2 18.2 0 0 1 2.152 8.541c.04 10.14-8.194 18.39-18.389 18.429a18.453 18.453 0 0 1-13.164-5.419l6.215-6.182a9.666 9.666 0 0 0 6.916 2.858c5.34-.02 9.653-4.341 9.632-9.653a9.547 9.547 0 0 0-.663-3.471Z"/>
  <path fill="url(#b)" d="M11.888 45.235a9.58 9.58 0 0 1-.562-13.547c3.59-3.9 9.668-4.185 13.609-.65l5.934-6.449c-7.523-6.795-19.161-6.265-26.028 1.197-6.869 7.466-6.366 19.048 1.113 25.898l5.934-6.45Z"/>
  <path fill="url(#c)" d="M24.912 31.018a9.58 9.58 0 0 1 .562 13.547c-3.59 3.9-9.668 4.185-13.61.649l-5.933 6.45c7.522 6.795 19.16 6.265 26.027-1.197 6.87-7.466 6.367-19.048-1.112-25.898l-5.934 6.45Z"/>
  <path fill="url(#d)" d="M20.105 15.399c-1 6.078 1.126 11.947 5.203 15.985l6.216-6.183a9.572 9.572 0 0 1-2.744-8.391c.862-5.242 5.833-8.796 11.103-7.939a9.641 9.641 0 0 1 5.316 2.73l.074.071a4.412 4.412 0 0 0 6.215 0 4.354 4.354 0 0 0 .159-6.015l.043.043-.082-.086a4.636 4.636 0 0 0-.12-.123l-.043-.043A18.409 18.409 0 0 0 41.302.244C31.241-1.393 21.751 5.392 20.105 15.399Z"/>
  <defs>
    <radialGradient id="a" cx="0" cy="0" r="1" gradientTransform="matrix(-69.77805 39.92023 -32.84887 -57.41777 79.672 13.699)" gradientUnits="userSpaceOnUse">
      <stop stop-color="#136FED"/>
      <stop offset="1" stop-color="#071E59"/>
    </radialGradient>
    <radialGradient id="b" cx="0" cy="0" r="1" gradientTransform="rotate(-68.661 46.647 21.689) scale(40.7397 36.5208)" gradientUnits="userSpaceOnUse">
      <stop stop-color="#03AEEA"/>
      <stop offset=".414" stop-color="#00C2FF"/>
      <stop offset="1" stop-color="#071E59"/>
    </radialGradient>
    <radialGradient id="c" cx="0" cy="0" r="1" gradientTransform="matrix(-16.37378 -39.36452 42.38661 -17.63083 22.924 44.35)" gradientUnits="userSpaceOnUse">
      <stop stop-color="#1FC9FF"/>
      <stop offset=".849" stop-color="#01ACE9"/>
    </radialGradient>
    <radialGradient id="d" cx="0" cy="0" r="1" gradientTransform="matrix(18.74694 -45.95172 71.94044 29.34956 27.934 29.623)" gradientUnits="userSpaceOnUse">
      <stop offset=".019" stop-color="#00C2FF"/>
      <stop offset=".584" stop-color="#063C77"/>
    </radialGradient>
  </defs>
</svg>
