<?xml version="1.0" encoding="UTF-8" standalone="no"?>
<svg
   width="450.95929"
   height="82"
   viewBox="0 0 450.95929 82"
   version="1.1"
   id="svg2"
   xmlns="http://www.w3.org/2000/svg"
   xmlns:svg="http://www.w3.org/2000/svg">
  <defs
     id="defs2" />
  <path
     d=""
     stroke="none"
     fill="#0c4c9c"
     fill-rule="evenodd"
     id="path1" />
  <path
     d="m 25,4 v 4 h -7.046 -7.045 l 0.295,6.75 0.296,6.75 6.25,0.298 c 6.044,0.288 7.938,1.34 4.668,2.595 -0.87,0.334 -6.27,0.607 -12,0.607 H 0 v 7 7 h 12.54 c 10.607,0 13.15,-0.311 16.499,-2.02 4.4,-2.245 8.577,-7.811 9.564,-12.746 C 38.964,22.428 39.871,21 40.656,21 c 1.451,0 1.756,0.575 2.775,5.232 0.802,3.662 6.277,9.748 10.271,11.417 C 55.834,38.54 61.205,39 69.468,39 H 82 V 32 25 H 70.622 C 61.729,25 58.973,24.672 58,23.5 56.915,22.192 57.604,22 63.378,22 H 70 V 15 8 H 63 56 V 4 0 H 49 42 V 3.5 C 42,5.944 41.548,7 40.5,7 39.452,7 39,5.944 39,3.5 V 0 h -7 -7 v 4 m 288,9.5 V 20 h 7 7 V 13.5 7 h -7 -7 v 6.5 M 102,41 v 33 h 7 7 V 60.5 47 H 130.5 145 V 40.5 34 H 130.5 116 V 27 20 H 132.5 149 V 14 8 H 125.5 102 v 33 m 232,0 v 33 h 7 7 V 41 8 h -7 -7 v 33 m 70,0 v 33 h 6.5 c 5.865,0 6.5,-0.198 6.5,-2.03 0,-2.024 0.009,-2.023 2.839,0.069 5.926,4.382 15.396,4.625 21.442,0.551 3.856,-2.599 7.352,-7.608 8.703,-12.472 1.355,-4.88 1.283,-18.021 -0.122,-22.219 -1.412,-4.217 -5.217,-9.43 -8.408,-11.521 -6.472,-4.241 -16.45,-3.673 -21.564,1.228 L 417,30.374 V 19.187 8 H 410.5 404 V 41 M 167.5,23.93 c -8.092,1.375 -13.562,5.948 -16.497,13.792 -4.888,13.063 -0.489,29.873 9.117,34.84 11.666,6.033 26.551,2.679 32.624,-7.352 3.453,-5.704 3.111,-6.21 -4.199,-6.21 -5.551,0 -6.804,0.35 -8.954,2.5 -5.216,5.216 -14.804,2.112 -16.217,-5.25 L 162.75,53 h 16.767 16.768 l -0.644,-6.164 c -1.384,-13.235 -7.466,-20.717 -18.551,-22.819 -2.95,-0.559 -5.414,-0.961 -5.476,-0.892 -0.063,0.069 -1.914,0.431 -4.114,0.805 m 55.852,0.151 c -1.732,0.508 -4.545,2.513 -6.25,4.456 L 214,32.07 V 28.535 25 H 207.5 201 V 49.5 74 h 7 7 V 59.547 c 0,-8.464 0.46,-15.463 1.11,-16.89 1.451,-3.184 4.615,-4.802 9.777,-4.998 l 4.179,-0.159 -0.283,-6.989 c -0.31,-7.655 -0.75,-8.095 -6.431,-6.43 M 260.5,23.468 c -0.55,0.196 -2.16,0.611 -3.578,0.92 -1.418,0.31 -3.78,1.678 -5.25,3.04 L 249,29.905 V 27.452 C 249,25.101 248.733,25 242.5,25 H 236 V 49.5 74 h 6.5 6.5 l 0.006,-14.75 c 0.006,-17.03 0.974,-21.912 4.619,-23.298 3.808,-1.447 5.243,-1.175 7.92,1.503 2.415,2.414 2.455,2.735 2.455,19.5 V 74 h 7 7 V 56.955 c 0,-16.765 0.04,-17.086 2.455,-19.5 2.407,-2.408 5.965,-3.146 8.145,-1.69 2.815,1.879 3.4,5.611 3.4,21.669 V 74 h 7 7 V 55.52 c 0,-14.672 -0.332,-19.31 -1.614,-22.513 -3.856,-9.638 -18.084,-12.65 -25.834,-5.468 l -2.72,2.521 -3.451,-3.03 c -1.898,-1.667 -4.222,-3.036 -5.166,-3.044 -0.943,-0.007 -2.615,-0.207 -3.715,-0.444 -1.1,-0.237 -2.45,-0.27 -3,-0.074 m 109.064,0.565 c -7.759,1.343 -13.097,6.313 -14.221,13.24 l -0.605,3.727 6.381,-0.006 c 6.038,-0.006 6.473,-0.167 8.084,-3 1.459,-2.564 2.295,-2.994 5.816,-2.994 5.347,0 7.981,1.475 7.981,4.468 0,2.768 -0.495,2.975 -11.751,4.934 -10.477,1.824 -14.588,4.3 -16.814,10.13 -4.445,11.637 2.077,20.846 14.683,20.731 5.874,-0.053 8.869,-1.135 12.632,-4.562 l 2.25,-2.05 v 2.675 c 0,2.661 0.036,2.674 7.5,2.674 7.656,0 9.17,-0.932 6.25,-3.848 -0.868,-0.868 -1.403,-6.807 -1.75,-19.45 -0.344,-12.531 -0.916,-18.932 -1.836,-20.546 -2.748,-4.824 -14.791,-7.822 -24.6,-6.123 M 313,49.5 V 74 h 7 7 V 49.5 25 h -7 -7 V 49.5 M 167.75,36.08 c -1.541,0.898 -4.75,5.877 -4.75,7.37 0,0.303 4.252,0.55 9.448,0.55 h 9.448 l -1.056,-3.03 c -1.685,-4.834 -8.692,-7.451 -13.09,-4.89 m 252.825,2.254 c -2.896,2.896 -4.003,7.861 -3.325,14.913 0.608,6.326 4.757,10.753 10.077,10.753 6.252,0 9.673,-5.276 9.673,-14.917 0,-8.46 -2.889,-12.475 -9.274,-12.887 -3.896,-0.252 -5.129,0.116 -7.151,2.138 M 0,50 v 7 h 10.418 c 5.73,0 11.13,0.273 12,0.607 3.27,1.255 1.376,2.307 -4.668,2.595 L 11.5,60.5 11.204,67.25 10.909,74 H 17.954 25 v 4 4 h 7 7 v -3.5 c 0,-2.444 0.452,-3.5 1.5,-3.5 1.048,0 1.5,1.056 1.5,3.5 V 82 h 7 7 v -4 -4 h 7 7 V 67 60 H 63.378 C 57.604,60 56.915,59.808 58,58.5 58.973,57.328 61.729,57 70.622,57 H 82 V 50 43 H 69.468 C 61.205,43 55.834,43.46 53.702,44.351 49.708,46.02 44.233,52.106 43.431,55.768 42.412,60.425 42.107,61 40.656,61 39.871,61 38.964,59.572 38.603,57.766 37.616,52.831 33.439,47.265 29.039,45.02 25.69,43.311 23.147,43 12.54,43 H 0 v 7 m 376.283,2.958 c -7.491,2.099 -9.283,3.443 -9.283,6.964 0,3.686 1.721,5.078 6.277,5.078 5.52,0 9.723,-4.289 9.723,-9.923 0,-2.242 -0.113,-4.028 -0.25,-3.968 -0.137,0.059 -3.048,0.892 -6.467,1.849"
     stroke="none"
     fill="#0c4c94"
     fill-rule="evenodd"
     id="path2" />
</svg>
