<?xml version="1.0" encoding="UTF-8" standalone="no"?>
<!-- Generator: Adobe Illustrator 24.1.3, SVG Export Plug-In . SVG Version: 6.00 Build 0)  -->

<svg
   version="1.1"
   id="Layer_1"
   x="0px"
   y="0px"
   viewBox="0 0 298.00613 47.200001"
   xml:space="preserve"
   width="298.00613"
   height="47.200001"
   xmlns="http://www.w3.org/2000/svg"
   xmlns:svg="http://www.w3.org/2000/svg"><defs
   id="defs31" />
<style
   type="text/css"
   id="style2">
	.st0{fill-rule:evenodd;clip-rule:evenodd;fill:#000E9C;}
	.st1{fill:#000E9C;}
</style>
<g
   id="g26"
   transform="translate(-33.993861,-37.1)">
	<g
   id="g24">
		<path
   class="st0"
   d="m 107.1,39.8 c 7.9,14.2 6.4,31.8 -3.7,44.5 H 81.9 L 88.5,72.6 H 79.8 L 90.1,54.5 h 8.8 z M 64.8,84.3 H 42.9 C 32.6,71.6 31.1,53.9 39.1,39.7 L 53.3,64.3 68.9,37.1 h 23 L 64.8,84.3 v 0 z"
   id="path4" />
		<g
   id="g22">
			<path
   class="st1"
   d="m 125.2,61.4 c 0,-12.6 6.3,-18.6 16.6,-18.6 10.3,0 16.6,6.1 16.6,18.6 0,12.5 -6.3,18.6 -16.6,18.6 -10.4,0 -16.6,-6.1 -16.6,-18.6 z m 3.7,0 c 0,10.4 4.7,15.3 12.8,15.3 8.1,0 12.8,-4.9 12.8,-15.3 0,-10.4 -4.7,-15.3 -12.8,-15.3 -8.1,0 -12.8,4.9 -12.8,15.3 z"
   id="path6" />
			<path
   class="st1"
   d="m 185.4,44.2 c 0.2,-0.4 0.7,-1.2 1.7,-1.2 1,0 1.8,0.8 1.8,1.8 0,0.3 -0.1,0.6 -0.2,0.8 l -12.4,32.8 c -0.3,0.7 -1,1.2 -1.7,1.2 -0.7,0 -1.4,-0.5 -1.7,-1.2 L 160.5,45.6 c -0.1,-0.2 -0.2,-0.5 -0.2,-0.8 0,-1 0.8,-1.8 1.8,-1.8 1,0 1.5,0.7 1.7,1.2 l 10.8,28.6 z"
   id="path8" />
			<path
   class="st1"
   d="m 196.4,62.6 v 15.3 c 0,1 -0.8,1.8 -1.8,1.8 -1,0 -1.8,-0.8 -1.8,-1.8 v -33 c 0,-1 0.8,-1.8 1.8,-1.8 1,0 1.8,0.8 1.8,1.8 v 14.4 h 18.5 V 44.9 c 0,-1 0.8,-1.8 1.8,-1.8 1,0 1.8,0.8 1.8,1.8 v 33 c 0,1 -0.8,1.8 -1.8,1.8 -1,0 -1.8,-0.8 -1.8,-1.8 V 62.6 Z"
   id="path10" />
			<path
   class="st1"
   d="m 235.5,54.4 c 4.7,0 7.3,2.5 8.2,3.7 0.3,0.4 0.4,0.6 0.4,1 0,0.9 -0.7,1.5 -1.5,1.5 -0.5,0 -0.9,-0.2 -1.3,-0.6 -0.8,-0.9 -2.2,-2.5 -5.7,-2.5 -4.9,0 -7.5,3.1 -7.5,9.7 0,6.6 2.6,9.7 7.5,9.7 3.1,0 4.9,-1.4 6.2,-2.3 0.4,-0.3 0.6,-0.4 1,-0.4 0.8,0 1.5,0.7 1.5,1.5 0,0.5 -0.2,0.9 -0.7,1.3 -1.2,1 -3.7,2.9 -8,2.9 -6.8,0 -10.9,-4.1 -10.9,-12.8 0,-8.7 4,-12.7 10.8,-12.7 z"
   id="path12" />
			<path
   class="st1"
   d="m 252.5,43.1 v 30.3 c 0,2.1 0.7,3 2.1,3 0.8,0 1.6,0.7 1.6,1.6 0,0.9 -0.7,1.6 -1.6,1.6 -3.6,0 -5.5,-2.1 -5.5,-6.2 V 43.1 c 0,-0.9 0.8,-1.7 1.7,-1.7 0.9,0 1.7,0.8 1.7,1.7 z"
   id="path14" />
			<path
   class="st1"
   d="m 281.4,67.1 c 0,8.7 -4.2,12.8 -11.1,12.8 -6.8,0 -11.1,-4.1 -11.1,-12.8 0,-8.7 4.3,-12.7 11.1,-12.7 6.9,0 11.1,4 11.1,12.7 z m -3.4,0 c 0,-6.7 -2.8,-9.7 -7.7,-9.7 -4.9,0 -7.7,3 -7.7,9.7 0,6.8 2.8,9.7 7.7,9.7 4.9,0 7.7,-2.9 7.7,-9.7 z"
   id="path16" />
			<path
   class="st1"
   d="m 289.6,56.4 v 13.9 c 0,3.5 1.1,6.4 6.5,6.4 5.4,0 6.5,-3 6.5,-6.4 V 56.4 c 0,-1 0.8,-1.7 1.8,-1.7 0.9,0 1.6,0.7 1.6,1.7 v 13.9 c 0,5 -1.6,9.7 -9.9,9.7 -8.2,0 -9.9,-4.6 -9.9,-9.7 V 56.4 c 0,-1 0.7,-1.7 1.7,-1.7 0.9,0 1.7,0.7 1.7,1.7 z"
   id="path18" />
			<path
   class="st1"
   d="M 328.6,57.8 V 43.1 c 0,-1 0.7,-1.7 1.7,-1.7 1,0 1.7,0.7 1.7,1.7 v 26.3 c 0,7 -4.4,10.5 -10.4,10.5 -6.8,0 -10.9,-4.1 -10.9,-12.8 0,-8.7 3.8,-12.7 10.7,-12.7 3.4,0 6,1.7 7.2,3.4 z m 0,4.3 c 0,0 -2,-4.7 -7,-4.7 -4.8,0 -7.5,3.1 -7.5,9.7 0,6.6 2.6,9.7 7.5,9.7 4.1,0 7,-2.3 7,-7.4 z"
   id="path20" />
		</g>
	</g>
</g>
</svg>
