<svg width="162" height="141" viewBox="0 0 162 141" fill="none" xmlns="http://www.w3.org/2000/svg">
<path d="M131.977 88.2825C149.259 76.9863 154.913 53.9444 144.455 35.8345C139.215 26.7506 130.744 20.2452 120.611 17.5287C111.222 15.0081 101.415 16.0388 92.7843 20.3993L81 0L56.5388 42.3656L0 140.281H162L131.977 88.2825ZM117.839 27.9066C125.205 29.8685 131.335 34.5982 135.153 41.1839C142.657 54.1659 138.759 70.6318 126.589 78.9482L98.1659 29.724C104.289 26.7795 111.196 26.1373 117.839 27.9066ZM81 21.5007L143.37 129.527H106.877L62.7456 53.1159L80.9968 21.5039L81 21.5007ZM18.6301 129.527L56.5356 63.8887L94.4411 129.527H18.6301Z" fill="url(#paint0_linear_552_15)"/>
<defs>
<linearGradient id="paint0_linear_552_15" x1="18.2715" y1="143.379" x2="138.502" y2="23.1479" gradientUnits="userSpaceOnUse">
<stop stop-color="#FC3519"/>
<stop offset="1" stop-color="#F0D136"/>
</linearGradient>
</defs>
</svg>
