<?xml version="1.0" encoding="utf-8"?>
<!-- Generator: Adobe Illustrator 26.2.1, SVG Export Plug-In . SVG Version: 6.00 Build 0)  -->
<svg version="1.1" id="Layer_1" xmlns="http://www.w3.org/2000/svg" xmlns:xlink="http://www.w3.org/1999/xlink" x="0px" y="0px"
	 viewBox="0 0 1964 500" style="enable-background:new 0 0 1964 500;" xml:space="preserve">
<style type="text/css">
	.st0{clip-path:url(#SVGID_00000002381004175737270520000008523196620159263365_);}
	.st1{fill:#6D4AFF;}
	.st2{fill:url(#SVGID_00000169527687160271718880000018046773946225058474_);}
</style>
<g>
	<defs>
		<rect id="SVGID_1_" width="1964" height="500"/>
	</defs>
	<clipPath id="SVGID_00000135688158274780648320000006181045120515362712_">
		<use xlink:href="#SVGID_1_"  style="overflow:visible;"/>
	</clipPath>
	<g style="clip-path:url(#SVGID_00000135688158274780648320000006181045120515362712_);">
		<path class="st1" d="M0.6,364.1v128.2h90V369.6c0-11.9,4.7-23.4,13.2-31.8c8.4-8.4,19.9-13.2,31.8-13.2h92.3
			c43,0,84.3-17.1,114.7-47.6c30.4-30.4,47.5-71.7,47.5-114.7l0,0c0-43-17.1-84.3-47.5-114.8C312.1,17.1,270.8,0,227.8,0H0.6v160.2
			h90V84.7h131.2c20.4,0,39.9,8.1,54.3,22.5c14.4,14.4,22.5,33.9,22.5,54.3l0,0c0,20.4-8.1,39.9-22.5,54.3
			c-14.4,14.4-33.9,22.5-54.3,22.5h-95.3c-16.5,0-32.9,3.2-48.1,9.6c-15.3,6.3-29.1,15.6-40.8,27.3c-11.7,11.7-20.9,25.6-27.3,40.8
			C3.8,331.2,0.6,347.6,0.6,364.1L0.6,364.1z"/>
		
			<linearGradient id="SVGID_00000077324322761377690540000012084739319993521591_" gradientUnits="userSpaceOnUse" x1="68.0353" y1="33.984" x2="68.0353" y2="222.336" gradientTransform="matrix(1 0 0 -1 0 502)">
			<stop  offset="0" style="stop-color:#6D4BFD"/>
			<stop  offset="1" style="stop-color:#1C0554"/>
		</linearGradient>
		<path style="fill:url(#SVGID_00000077324322761377690540000012084739319993521591_);" d="M135.5,324.6
			c-35.8,0-70.1,14.2-95.4,39.5c-25.3,25.3-39.5,59.6-39.5,95.4v32.7h90V369.6c0-11.9,4.7-23.4,13.2-31.8
			C112.1,329.4,123.6,324.6,135.5,324.6L135.5,324.6z"/>
		<path class="st1" d="M404,492.3V297c0-79.7,46.5-143.1,139.6-143.1c14.9-0.2,29.8,1.4,44.4,4.9v80.3c-10.6-0.7-19.7-0.7-24-0.7
			c-49.3,0-70.5,22.6-70.5,68.4v185.5H404z"/>
		<path class="st1" d="M614.8,326.6c0-98,74-172.7,177-172.7s177,74.7,177,172.7s-74,173.4-177,173.4S614.8,424.6,614.8,326.6z
			 M880.6,326.6c0-55.7-37.4-95.2-88.8-95.2c-51.5,0-88.8,39.4-88.8,95.2c0,56.4,37.4,95.2,88.8,95.2
			C843.2,421.8,880.6,383,880.6,326.6z"/>
		<path class="st1" d="M1254.9,326.6c0-98,74-172.7,177-172.7c102.9,0,176.9,74.7,176.9,172.7s-74,173.4-176.9,173.4
			S1254.9,424.6,1254.9,326.6z M1520.7,326.6c0-55.7-37.4-95.2-88.8-95.2s-88.8,39.4-88.8,95.2c0,56.4,37.4,95.2,88.8,95.2
			S1520.7,383,1520.7,326.6L1520.7,326.6z"/>
		<path class="st1" d="M1655.3,492.3V304c0-87.4,55.7-150.2,155.1-150.2c98.7,0,154.4,62.7,154.4,150.2v188.2H1876V311.1
			c0-48.6-21.9-79-65.6-79c-43.7,0-65.6,30.3-65.6,79v181.2H1655.3z"/>
		<path class="st1" d="M1228.2,232.1h-96.6v123.4c0,43,15.5,62.7,59.9,62.7c4.2,0,14.8,0,28.2-0.7v72.6c-18.3,4.9-34.5,7.8-52.2,7.8
			c-74.7,0-125.5-45.1-125.5-130.4V232.1h-60v-71.2h15c5.9,0,11.8-1.2,17.2-3.4c5.5-2.3,10.4-5.6,14.6-9.8c4.2-4.2,7.5-9.1,9.8-14.6
			c2.3-5.5,3.4-11.3,3.4-17.2V48.8h89.5v112.1h96.6V232.1z"/>
	</g>
</g>
</svg>
