<?xml version="1.0" encoding="UTF-8" standalone="no"?>
<!-- Generator: Adobe Illustrator 28.3.0, SVG Export Plug-In . SVG Version: 6.00 Build 0)  -->

<svg
   version="1.1"
   id="Ebene_1"
   x="0px"
   y="0px"
   viewBox="0 0 669.09998 110.00751"
   xml:space="preserve"
   width="669.09998"
   height="110.00751"
   xmlns="http://www.w3.org/2000/svg"
   xmlns:svg="http://www.w3.org/2000/svg"><defs
   id="defs31" />
<style
   type="text/css"
   id="style2">
	.st0{fill:#E30613;}
</style>
<g
   id="g26"
   transform="translate(-77.7,-77.792487)">
	<path
   class="st0"
   d="m 199.9,109.1 c 0,-2.6 -0.3,-5.1 -1,-7.6 -0.6,-2.3 -1.7,-4.4 -3.1,-6.3 -1.4,-1.8 -3.2,-3.3 -5.2,-4.3 -2.4,-1.2 -5,-1.7 -7.6,-1.6 -5,-0.3 -9.8,1.6 -13.3,5.3 -3.3,4.2 -5.3,9.3 -5.6,14.6 h 35.8 z m -36,10.5 c 0.2,7.9 2.3,13.8 6.2,17.4 3.9,3.7 9.7,5.5 17.3,5.5 6.6,0 13.1,-1.2 19.2,-3.5 0.8,1.6 1.4,3.4 1.8,5.2 0.5,2 0.7,4 0.8,6 -3.3,1.3 -6.7,2.3 -10.3,2.9 -4.1,0.7 -8.3,1 -12.4,1 -5.8,0.1 -11.6,-0.9 -17,-2.9 -8.9,-3.3 -15.8,-10.6 -18.5,-19.7 -1.5,-4.9 -2.2,-10 -2.1,-15.1 0,-5.1 0.7,-10.2 2.1,-15.1 1.2,-4.5 3.4,-8.6 6.3,-12.2 2.9,-3.5 6.6,-6.3 10.7,-8.2 4.8,-2.1 10,-3.2 15.3,-3.1 4.5,-0.1 9,0.8 13.2,2.6 3.7,1.6 6.9,4 9.5,7 2.6,3.1 4.6,6.7 5.8,10.6 1.4,4.3 2,8.9 2,13.4 v 4.2 c 0,1.3 -0.2,2.7 -0.3,3.8 z"
   id="path4" />
	<path
   class="st0"
   d="m 287.9,139.8 c 0.9,1.6 1.5,3.2 2,5 0.6,2 0.9,4 1,6.1 -6.1,2.3 -12.6,3.4 -19.2,3.3 -12.1,0 -21.2,-3.4 -27.4,-10.3 -6.2,-6.9 -9.2,-16.1 -9.2,-27.7 0,-5.1 0.7,-10.2 2.3,-15.1 1.4,-4.4 3.7,-8.5 6.7,-12.1 3.1,-3.5 6.9,-6.2 11.1,-8.1 4.9,-2 10.2,-3 15.5,-2.9 3.5,0 7,0.2 10.5,0.7 3,0.5 5.9,1.2 8.7,2.3 0,1.9 -0.2,3.8 -0.6,5.6 -0.4,1.9 -1,3.8 -1.8,5.6 -5.1,-1.7 -10.5,-2.5 -15.9,-2.4 -6.3,-0.5 -12.4,2.3 -16.3,7.2 -3.8,5.6 -5.7,12.3 -5.4,19.2 0,9.1 2,15.7 6.1,19.9 4.4,4.4 10.5,6.7 16.7,6.3 2.6,0 5.3,-0.2 7.9,-0.6 2.5,-0.3 5,-1 7.3,-2"
   id="path6" />
	<path
   class="st0"
   d="m 313.3,79.7 c 1,-0.2 2.2,-0.3 3.5,-0.4 1.3,-0.1 2.5,-0.1 3.4,-0.1 1,0 2.2,0 3.5,0.1 1.3,0.1 2.5,0.2 3.5,0.4 v 39.9 c -0.1,3.8 0.3,7.6 1.3,11.3 0.7,2.6 2,5 3.8,7 1.7,1.7 3.9,2.9 6.2,3.5 2.8,0.7 5.7,1.1 8.7,1 4.2,0.1 8.3,-0.4 12.3,-1.6 V 79.7 c 1.1,-0.2 2.2,-0.3 3.5,-0.4 1.3,-0.1 2.4,-0.1 3.5,-0.1 1.1,0 2.2,0 3.5,0.1 1.3,0.1 2.5,0.2 3.5,0.4 v 70.5 c -3.3,1 -7.3,1.8 -11.9,2.7 -4.7,0.9 -9.5,1.3 -14.2,1.3 -4.4,0 -8.8,-0.4 -13.1,-1.2 -4,-0.7 -7.7,-2.4 -10.9,-4.9 -3.3,-2.8 -5.9,-6.3 -7.4,-10.4 -2,-5.6 -2.9,-11.6 -2.7,-17.6 z"
   id="path8" />
	<path
   class="st0"
   d="m 402.7,79.7 c 1,-0.2 2,-0.3 2.9,-0.4 0.8,-0.1 1.9,-0.1 2.9,-0.1 1,0 2.1,0 3.1,0.1 1,0.1 1.9,0.2 2.9,0.4 0.3,1.4 0.6,3.3 0.9,5.8 0.2,1.9 0.4,3.8 0.4,5.8 2,-3.3 4.7,-6.1 7.9,-8.4 3.7,-2.5 8.1,-3.7 12.6,-3.5 h 2.3 c 0.7,0 1.4,0.1 2,0.2 0.2,0.9 0.4,1.8 0.4,2.7 0,1 0.1,1.9 0.1,2.9 0,1.2 -0.1,2.4 -0.2,3.5 -0.2,1.3 -0.3,2.4 -0.5,3.5 -0.8,-0.2 -1.5,-0.3 -2.3,-0.3 h -1.9 c -2.5,0 -5,0.4 -7.3,1.1 -2.3,0.7 -4.5,2 -6.2,3.8 -2,2.1 -3.5,4.6 -4.4,7.4 -1.2,3.9 -1.8,8 -1.6,12.1 v 36.3 c -1.1,0.2 -2.3,0.4 -3.5,0.4 -1.3,0 -2.4,0.1 -3.5,0.1 -1,0 -2.2,0 -3.5,-0.1 -1.2,-0.1 -2.4,-0.2 -3.6,-0.4 z"
   id="path10" />
	<path
   class="st0"
   d="m 490,143 c 5.7,0.4 11.2,-2.3 14.4,-7.1 6.2,-12.4 6.2,-27 0,-39.4 -3.2,-4.7 -8.7,-7.4 -14.4,-7 -5.7,-0.4 -11.2,2.3 -14.4,7 -6.2,12.4 -6.2,27 0,39.4 3.1,4.8 8.6,7.5 14.4,7.1 z m 0,11.2 c -5.1,0.1 -10.2,-0.9 -14.9,-2.9 -4.1,-1.8 -7.8,-4.6 -10.6,-8 -2.9,-3.6 -5.1,-7.7 -6.3,-12.2 -2.8,-9.8 -2.8,-20.2 0,-30.1 1.3,-4.4 3.4,-8.5 6.3,-12.1 2.9,-3.5 6.5,-6.2 10.6,-8.1 9.5,-4 20.3,-4 29.8,0 4.1,1.9 7.7,4.6 10.6,8.1 2.9,3.5 5,7.7 6.3,12.1 2.7,9.8 2.7,20.2 0,30.1 -1.3,4.4 -3.4,8.5 -6.3,12.1 -2.9,3.4 -6.5,6.2 -10.6,8 -4.8,2.1 -9.8,3.1 -14.9,3"
   id="path12" />
	<path
   class="st0"
   d="m 548.1,139.3 c 2.7,1.1 5.6,1.9 8.5,2.5 3,0.6 6.1,0.9 9.1,0.9 2.1,0 4.2,-0.2 6.3,-0.7 1.8,-0.4 3.6,-1.1 5.2,-2.1 1.4,-0.9 2.6,-2.1 3.5,-3.5 0.9,-1.4 1.4,-3 1.4,-4.6 0.1,-1.6 -0.3,-3.2 -1.1,-4.7 -0.7,-1.2 -1.7,-2.3 -2.9,-3.1 -1.3,-0.9 -2.7,-1.6 -4.1,-2.2 -1.6,-0.6 -3.2,-1.2 -5,-1.8 l -5,-1.8 c -4.9,-1.6 -9.4,-4.2 -13.2,-7.7 -2.9,-3.1 -4.3,-7.3 -4.1,-11.5 -0.2,-5.9 2.3,-11.6 6.9,-15.3 4.6,-3.8 11.3,-5.8 20.2,-5.8 3.6,0 7.3,0.4 10.8,1.1 3.1,0.6 6.3,1.4 9.3,2.5 -0.2,2 -0.5,3.9 -1.1,5.8 -0.5,1.8 -1.1,3.6 -1.9,5.2 -2.1,-0.7 -4.6,-1.5 -7.4,-2.2 -3.1,-0.7 -6.2,-1.1 -9.3,-1.1 -3.2,-0.1 -6.4,0.6 -9.3,1.8 -2.6,1.1 -4.2,3.7 -4,6.5 0,1.4 0.3,2.9 1,4.1 0.7,1.1 1.6,2.1 2.7,2.9 1.2,0.8 2.5,1.5 3.9,2 1.5,0.6 3.1,1.1 4.8,1.7 l 6.2,2.1 c 2.2,0.7 4.4,1.6 6.5,2.7 2,1 3.7,2.3 5.3,3.9 1.5,1.7 2.8,3.6 3.5,5.8 2,5.7 1.8,12 -0.8,17.6 -1.4,2.9 -3.5,5.4 -6,7.4 -2.8,2.2 -6,3.8 -9.4,4.8 -4,1.2 -8.1,1.7 -12.2,1.7 -4,0 -8,-0.3 -11.9,-0.9 -3.2,-0.6 -6.4,-1.4 -9.5,-2.5 0.2,-2 0.6,-3.9 1.2,-5.8 0.5,-1.9 1.3,-3.8 1.9,-5.7"
   id="path14" />
	<path
   class="st0"
   d="m 645.9,152.6 h -7.6 c -1,0 -1.9,-0.1 -2.6,-0.2 L 611.6,79.6 c 1.2,-0.2 2.5,-0.3 3.8,-0.3 h 7.8 c 1.3,0 2.6,0.2 3.8,0.3 l 20.2,67.7 20.9,-67.7 c 2.3,-0.3 4.6,-0.4 7,-0.4 h 3.5 c 1.3,0 2.7,0.1 4,0.3 l -28.4,87.7 c -1.1,3.4 -2.5,6.6 -4.1,9.8 -1.2,2.4 -2.9,4.6 -4.8,6.4 -1.7,1.6 -3.8,2.7 -6,3.4 -2.5,0.7 -5.1,1 -7.8,1 -2.2,0 -4.3,-0.2 -6.4,-0.5 -1.9,-0.3 -3.8,-0.7 -5.6,-1.2 -0.1,-3.8 0.7,-7.5 2.2,-10.9 1.1,0.4 2.3,0.7 3.5,0.9 1.6,0.3 3.1,0.5 4.7,0.5 1.2,0 2.3,-0.1 3.5,-0.3 1.1,-0.2 2.2,-0.7 3.1,-1.4 1.1,-0.9 1.9,-1.9 2.6,-3.1 1,-1.7 1.7,-3.5 2.3,-5.4 z"
   id="path16" />
	<path
   class="st0"
   d="m 97.2,91.1 c 2.9,-1.3 6.1,-1.9 9.3,-1.8 3.1,0 6.2,0.3 9.3,1.1 2.9,0.7 5.4,1.4 7.4,2.2 0.8,-1.7 1.4,-3.5 1.9,-5.3 0.5,-1.9 0.9,-3.8 1,-5.8 -3,-1 -6.1,-1.9 -9.3,-2.5 -3.6,-0.7 -7.2,-1.1 -10.8,-1.1 -1.8,0 -3.4,0.1 -5,0.3 l -4.2,13 c 0.1,-0.1 0.4,-0.1 0.4,-0.1 z"
   id="path18" />
	<path
   class="st0"
   d="m 127,122.8 c -0.8,-2.1 -2,-4.1 -3.6,-5.8 -1.5,-1.6 -3.3,-2.9 -5.2,-3.9 -2.1,-1.1 -4.2,-1.9 -6.5,-2.7 l -6.3,-2.1 c -1.7,-0.6 -3.3,-1.1 -4.8,-1.7 -1.4,-0.5 -2.7,-1.2 -3.9,-2 -1.1,-0.8 -2,-1.7 -2.7,-2.9 -0.1,-0.2 -0.2,-0.5 -0.3,-0.8 L 89.2,115 c 2.2,1.2 4.5,2.3 6.9,3.2 l 5,1.8 c 1.8,0.5 3.5,1.2 5,1.8 1.4,0.6 2.8,1.3 4.1,2.2 1.2,0.8 2.2,1.9 2.9,3.1 0.8,1.4 1.1,3 1.1,4.7 0,1.6 -0.4,3.2 -1.3,4.6 -0.9,1.4 -2.2,2.6 -3.6,3.5 -1.6,1 -3.3,1.7 -5.2,2.1 -2,0.5 -4.1,0.7 -6.2,0.7 -5.7,0.1 -11.3,-0.9 -16.6,-2.9 l -3.6,11.3 c 2.9,1 5.8,1.8 8.8,2.3 3.9,0.7 7.9,1 11.9,0.9 4.1,0 8.2,-0.5 12.2,-1.7 3.4,-1 6.6,-2.6 9.4,-4.8 2.6,-2 4.6,-4.5 6,-7.4 1.5,-3 2.2,-6.3 2.1,-9.6 0.3,-2.7 -0.2,-5.4 -1.1,-8"
   id="path20" />
	<path
   class="st0"
   d="m 733.3,110.5 -6.3,-2.1 c -1.7,-0.6 -3.3,-1.1 -4.8,-1.7 -1.4,-0.5 -2.7,-1.2 -3.9,-2 -1.1,-0.8 -2,-1.7 -2.7,-2.9 -0.7,-1.3 -1,-2.7 -1,-4.1 -0.2,-2.8 1.5,-5.4 4.1,-6.5 2.9,-1.3 6.1,-1.9 9.3,-1.8 3.1,0 6.2,0.3 9.3,1.1 2.3,0.6 4.3,1.2 6.1,1.7 l 3.4,-10.8 c -2.7,-0.9 -5.5,-1.6 -8.4,-2.2 -3.6,-0.7 -7.2,-1.1 -10.8,-1.1 -8.9,0 -15.6,1.9 -20.2,5.8 -4.6,3.7 -7.1,9.4 -6.9,15.3 -0.2,4.2 1.3,8.4 4.1,11.5 3.8,3.5 8.3,6.1 13.2,7.7 l 5,1.8 c 1.8,0.6 3.5,1.2 5,1.8 1.4,0.6 2.8,1.3 4.1,2.2 0.4,0.3 0.6,0.7 0.9,1 l 4.1,-12.9 c -1.1,-0.7 -2.3,-1.3 -3.6,-1.8"
   id="path22" />
	<path
   class="st0"
   d="m 725.8,142 c -2,0.5 -4.1,0.7 -6.2,0.7 -3.1,0 -6.2,-0.3 -9.2,-0.9 -2.9,-0.6 -5.7,-1.4 -8.4,-2.5 -0.8,1.9 -1.4,3.8 -2.1,5.8 -0.6,1.9 -1,3.8 -1.2,5.8 3.1,1.1 6.3,1.9 9.5,2.5 3.9,0.7 7.9,1 11.9,0.9 1.2,0 2.3,-0.1 3.5,-0.2 l 4,-12.5 c -0.6,0.1 -1.2,0.3 -1.8,0.4"
   id="path24" />
</g>
</svg>
