<?xml version="1.0" encoding="UTF-8" standalone="no"?>
<svg
   version="1.1"
   viewBox="0 0 651.7422 201.28906"
   width="651.7422"
   height="201.28906"
   id="svg3"
   sodipodi:docname="stackhpc.svg"
   inkscape:version="1.4.2 (ebf0e940, 2025-05-08)"
   xmlns:inkscape="http://www.inkscape.org/namespaces/inkscape"
   xmlns:sodipodi="http://sodipodi.sourceforge.net/DTD/sodipodi-0.dtd"
   xmlns="http://www.w3.org/2000/svg"
   xmlns:svg="http://www.w3.org/2000/svg">
  <sodipodi:namedview
     id="namedview3"
     pagecolor="#ffffff"
     bordercolor="#000000"
     borderopacity="0.25"
     inkscape:showpageshadow="2"
     inkscape:pageopacity="0.0"
     inkscape:pagecheckerboard="0"
     inkscape:deskcolor="#d1d1d1"
     inkscape:zoom="0.23391646"
     inkscape:cx="335.58989"
     inkscape:cy="109.01328"
     inkscape:window-width="896"
     inkscape:window-height="250"
     inkscape:window-x="0"
     inkscape:window-y="31"
     inkscape:window-maximized="0"
     inkscape:current-layer="svg3" />
  <defs
     id="defs1" />
  <g
     id="Canvas_8"
     stroke-opacity="1"
     stroke="none"
     fill-opacity="1"
     stroke-dasharray="none"
     fill="none">
    <title
       id="title1">Canvas 8</title>
    <g
       id="Canvas_8_Layer_1">
      <title
         id="title2">Layer 1</title>
      <g
         id="Graphic_3">
        <g
           id="text3"
           style="fill:#838787"
           transform="translate(5 5)"
           aria-label="StackHPC">
          <path
             style="font-size:144px;font-family:Futura"
             d="m 74.390625,57.609375 -13.289063,7.875 Q 57.375,59.015625 54,57.046875 q -3.515625,-2.25 -9.070313,-2.25 -6.820312,0 -11.320312,3.867187 -4.5,3.796875 -4.5,9.5625 0,7.945313 11.8125,12.796875 L 51.75,85.453125 q 13.21875,5.34375 19.335937,13.078125 6.117188,7.66406 6.117188,18.84375 0,14.97656 -9.984375,24.75 -10.054688,9.84375 -24.960938,9.84375 -14.132812,0 -23.34375,-8.36719 Q 9.84375,135.23437 7.59375,120.04688 l 16.59375,-3.65625 q 1.125,9.5625 3.9375,13.21874 5.0625,7.03125 14.765625,7.03125 7.664062,0 12.726562,-5.13281 5.0625,-5.13281 5.0625,-13.00781 0,-3.16406 -0.914062,-5.76562 -0.84375,-2.67188 -2.742188,-4.85157 -1.828125,-2.25 -4.78125,-4.14843 -2.953125,-1.96875 -7.03125,-3.72657 L 34.734375,95.648437 q -22.289062,-9.421875 -22.289062,-27.5625 0,-12.234375 9.351562,-20.460937 9.351562,-8.296875 23.273437,-8.296875 18.773438,0 29.320313,18.28125 z M 112.71094,96.28125 V 150 H 96.890625 V 96.28125 h -6.75 V 81.515625 h 6.75 V 56.414062 h 15.820315 v 25.101563 h 12.30469 V 96.28125 Z m 74.8125,-14.765625 h 15.89062 V 150 h -15.89062 v -7.17188 q -9.77344,9.14063 -21.02344,9.14063 -14.20313,0 -23.48438,-10.26563 -9.21093,-10.47656 -9.21093,-26.15624 0,-15.39844 9.21093,-25.664068 9.21094,-10.265625 23.0625,-10.265625 11.95313,0 21.44532,9.84375 z m -37.54688,34.031255 q 0,9.84375 5.27344,16.03124 5.41406,6.25782 13.64062,6.25782 8.78907,0 14.20313,-6.04688 5.41406,-6.25781 5.41406,-15.89062 0,-9.63281 -5.41406,-15.89063 -5.41406,-6.117185 -14.0625,-6.117185 -8.15625,0 -13.64063,6.187505 -5.41406,6.25781 -5.41406,15.46875 z M 276.67969,84.46875 v 21.02344 q -5.41407,-6.609378 -9.70313,-9.070315 -4.21875,-2.53125 -9.91406,-2.53125 -8.92969,0 -14.83594,6.257815 -5.90625,6.25781 -5.90625,15.67969 0,9.63281 5.69531,15.82031 5.76563,6.1875 14.69532,6.1875 5.69531,0 10.05468,-2.46094 4.21875,-2.39063 9.91407,-9.28125 v 20.88281 q -9.63282,4.99219 -19.26563,4.99219 -15.89062,0 -26.57812,-10.26563 -10.6875,-10.33593 -10.6875,-25.66406 0,-15.32812 10.82812,-25.874998 10.82813,-10.546875 26.57813,-10.546875 10.125,0 19.125,4.851563 z m 34.875,-53.226563 v 72.421873 l 22.28906,-22.148435 h 21.23437 L 325.33594,110.27344 357.25781,150 h -20.53125 l -22.64062,-28.89844 -2.53125,2.53125 V 150 H 295.73437 V 31.242187 Z"
             id="path3" />
          <path
             style="font-size:144px;font-family:Futura;fill:#005493"
             d="M 386.85937,83.90625 H 433.6875 V 41.4375 h 16.38281 V 150 H 433.6875 V 99.304687 H 386.85937 V 150 H 370.47656 V 41.4375 h 16.38281 z m 105.60938,22.00781 V 150 H 476.08594 V 41.4375 h 18.5625 q 13.64062,0 20.60156,1.898437 7.03125,1.898438 12.375,7.171875 9.35156,9.140625 9.35156,23.0625 0,14.90625 -9.98437,23.625 -9.98438,8.718748 -26.92969,8.718748 z m 0,-15.187498 h 6.11719 q 22.57031,0 22.57031,-17.367187 0,-16.804688 -23.27344,-16.804688 h -5.41406 z M 634.07812,47.273437 v 19.40625 Q 619.875,54.796875 604.6875,54.796875 q -16.73438,0 -28.19531,12.023437 -11.53125,11.953125 -11.53125,29.25 0,17.085938 11.53125,28.828128 11.53125,11.74218 28.26562,11.74218 8.64844,0 14.69531,-2.8125 3.375,-1.40625 6.96094,-3.79687 3.65625,-2.39062 7.66406,-5.76562 v 19.75781 q -14.0625,7.94531 -29.53125,7.94531 -23.27343,0 -39.72656,-16.24219 -16.38281,-16.38281 -16.38281,-39.515623 0,-20.742187 13.71094,-36.984375 16.875,-19.898437 43.66406,-19.898437 14.625,0 28.26562,7.945312 z"
             id="path4" />
        </g>
      </g>
    </g>
  </g>
</svg>
