<?xml version="1.0" encoding="UTF-8"?>
<svg id="Layer_1" data-name="Layer 1" xmlns="http://www.w3.org/2000/svg" viewBox="0 0 226.69 209.22">
  <defs>
    <style>
      .cls-1 {
        fill: #fff;
      }
    </style>
  </defs>
  <path class="cls-1" d="M38.33,130.1c-6.93,0-13.62,0-20.3,0-3.14,0-6.28,0-9.41,0-1.93,0-3.4-.84-4.28-2.54-.85-1.63-.73-3.29.23-4.87,12.52-20.59,25.04-41.17,37.55-61.77,11.65-19.17,23.29-38.35,34.93-57.54.72-1.2,1.41-2.37,2.78-2.95,2.36-1,4.85-.13,6.19,2.1,5,8.28,10.02,16.55,15.04,24.82.14.22.21.51.52.59.36-.1.45-.45.61-.71,5.11-8.27,10.23-16.54,15.32-24.82,1.96-3.18,6.51-3.25,8.38-.06,4.92,8.38,10.17,16.57,15.29,24.83,25.48,41.13,50.99,82.24,76.48,123.35,1.84,2.97,1.17,6.03-1.6,7.42-.9.46-1.87.45-2.84.45-11.49,0-22.98,0-34.47,0-49.47,0-98.93,0-148.4,0-.87,0-1.75.05-2.6-.26-2.93-1.07-4.02-4.48-2.33-7.19,4.1-6.56,8.19-13.14,12.28-19.71.19-.3.34-.62.64-1.16ZM121.69,13.96c-27.94,45.05-55.74,89.9-83.64,134.88h167.27c-27.91-45.01-55.72-89.87-83.64-134.88ZM81.77,14.08C60.18,49.64,38.7,85,17.21,120.39c.59.33,1.06.21,1.5.21,8.03,0,16.06-.01,24.08.03,1.09,0,1.72-.31,2.31-1.26,10.19-16.5,20.41-32.98,30.64-49.46,6.48-10.45,12.97-20.9,19.44-31.36.37-.59.86-1.09.32-1.97-4.57-7.41-9.07-14.86-13.72-22.5Z"/>
  <path class="cls-1" d="M30.49,183.82c5.17,0,8.84,2.65,10,7.21,1.47,5.82-2.61,11.46-8.59,11.87-3.66.25-7.04-.42-9.51-3.36-2.59-3.08-2.92-6.63-1.33-10.23,1.61-3.65,4.74-5.22,8.6-5.49.28-.02.55,0,.83,0ZM35.19,193.42c.02-2.98-1.86-5.05-4.63-5.1-2.81-.05-4.82,2.06-4.82,5.06,0,2.94,1.95,5.02,4.7,5.03,2.78.01,4.72-2.03,4.74-4.99Z"/>
  <path class="cls-1" d="M107.12,202.92c-5.14,0-8.81-2.66-9.98-7.24-1.49-5.84,2.71-11.5,8.76-11.86,3.51-.21,6.77.44,9.19,3.18,2.7,3.06,3.09,6.65,1.53,10.33-1.56,3.68-4.66,5.29-8.53,5.59-.32.02-.65,0-.97,0ZM111.89,193.35c0-2.96-1.93-5.02-4.7-5.03-2.76-.01-4.73,2.05-4.75,4.99-.02,3.01,1.96,5.13,4.77,5.1,2.77-.03,4.68-2.09,4.67-5.06Z"/>
  <path class="cls-1" d="M44.66,202.57v-18.37h5.11c.03.49.07.98.1,1.48.48.2.66-.24.92-.42,3.65-2.55,9.27-1.81,11.57,1.51.73,1.05,1.23,2.24,1.26,3.46.09,4.09.03,8.18.03,12.34h-5.42c0-2.35,0-4.64,0-6.93,0-1.01,0-2.03-.04-3.04-.12-2.67-1.38-4.05-3.69-4.07-2.41-.02-4.27,1.62-4.38,4.06-.12,2.81-.05,5.62-.09,8.43,0,.49.12,1.01-.17,1.55h-5.22Z"/>
  <path class="cls-1" d="M132.19,184.43h2.96c.4.67,0,1.41.38,2.19,2.31-2.38,5.19-2.88,8.26-2.42,2.26.34,4.18,1.42,5.6,3.26,2.86,3.7,2.46,9.76-.75,12.98-2.68,2.69-8.99,3.99-13.23-.18,0,1.63,0,3.07,0,4.52s0,2.93,0,4.46h-3.22v-24.79ZM141.65,199.9c3.65,0,6.28-2.75,6.22-6.49-.06-3.71-2.64-6.29-6.27-6.29-3.59,0-6.17,2.64-6.19,6.35-.02,3.77,2.58,6.44,6.24,6.43Z"/>
  <path class="cls-1" d="M18.78,188.64c-1.42.75-2.76,1.46-4.09,2.15-2.75-3.54-6.19-2.73-7.81-1.04-1.88,1.96-1.8,5.52.17,7.4,2.15,2.05,5.05,1.62,7.62-1.22,1.34.72,2.71,1.45,4.07,2.17-1.1,3.42-5.41,5.41-10.19,4.76-4.68-.63-8.35-4.26-8.53-8.44-.24-5.64,2.51-9.26,7.94-10.43,4.76-1.03,9.28.87,10.82,4.65Z"/>
  <path class="cls-1" d="M69.03,188.56h-2.73v-4.14h2.58c.29-1.29.1-2.48.15-3.66.02-.54.02-1.03.77-1.02,1.51.01,3.02,0,4.67,0v4.58h4.62v4.17h-4.55c0,2.71-.1,5.28.03,7.84.09,1.84,1.41,2.6,3.24,2.1.39-.11.76-.3,1.25-.49.49,1.26.97,2.49,1.51,3.86-2.73,1.48-5.48,1.59-8.24.43-2.48-1.05-3.24-3.25-3.29-5.75-.05-2.58-.01-5.16-.01-7.91Z"/>
  <path class="cls-1" d="M223.68,197.68c.66.8,1.24,1.5,1.85,2.24-1.39,1.7-3.15,2.57-5.15,2.84-3.99.55-7.67-.04-10.33-3.46-2.88-3.69-2.42-9.54.93-12.79,3.27-3.16,9.02-3.4,12.55-.43,2.57,2.16,3.33,5.06,3.13,8.44h-14.97c.31,2.36,1.49,3.94,3.47,4.74,3.07,1.24,5.96.84,8.52-1.6ZM211.79,192.07h11.45c-.17-2.98-2.7-5.19-5.81-5.12-3.14.07-5.53,2.22-5.64,5.12Z"/>
  <path class="cls-1" d="M179.98,202.58h-3.16c-.05-.54-.1-1.02-.17-1.79-2.06,2.04-4.49,2.25-7.02,2.12-3.52-.18-5.76-2.45-5.7-5.79.06-2.89,2.42-4.88,6.03-4.98,2.2-.06,4.41-.01,6.6-.01.18-3.2-1.28-4.85-4.25-5.04-2.35-.15-4.45.5-6.51,1.94-.48-.88-.93-1.7-1.44-2.61,3.23-2.32,6.73-2.78,10.44-2.08,2.8.53,4.43,2.28,5.03,5.04.09.4.14.82.14,1.23.01,3.96,0,7.91,0,11.97ZM176.53,194.55c-2.43.2-4.82-.27-7.19.32-1.21.3-1.95,1.09-2.04,2.32-.08,1.14.45,2.11,1.53,2.56,2.04.85,4.08.75,5.95-.43,1.65-1.04,2.22-2.62,1.74-4.76Z"/>
  <path class="cls-1" d="M203.51,202.58h-3.3c0-1.22,0-2.4,0-3.59-.02-2.35.08-4.71-.09-7.05-.23-3.21-1.78-4.74-4.57-4.82-3.3-.09-5.36,1.51-5.93,4.55-.31,1.65-.19,3.31-.21,4.96-.02,1.93,0,3.86,0,5.86-1.09.26-2.12.12-3.23.11v-18.16h3.1c.04.69.08,1.32.13,2.18,2.1-2.1,4.56-2.64,7.27-2.54,3.76.14,6.7,2.83,6.81,6.61.12,3.91.03,7.83.03,11.89Z"/>
  <path class="cls-1" d="M121.12,176.95h5.26v25.63h-5.26v-25.63Z"/>
  <path class="cls-1" d="M88.92,202.57h-5.22v-18.38h5.11c.03.56.06,1.1.11,1.85,1.85-1.53,3.82-2.44,6.26-2.17v4.92c-.55,0-1.04-.02-1.54,0-2.69.11-4.39,1.75-4.48,4.44-.09,2.58-.04,5.17-.07,7.75,0,.5.11,1.01-.16,1.58Z"/>
  <path class="cls-1" d="M158.88,176.99v25.58h-3.15v-25.58h3.15Z"/>
</svg>