<?xml version="1.0" encoding="UTF-8"?><svg id="svg2" xmlns="http://www.w3.org/2000/svg" viewBox="0 0 651.13 186.35"><defs><style>.cls-1{fill:#fff;}.cls-2{fill:#cc1b3f;}</style></defs><g id="g12"><path id="path14" class="cls-1" d="m551.59,154.73c.99,1.38,1.48,3.12,1.48,5.22v1.08h-11.7c.05-2.36.64-4.34,1.77-5.95,1.13-1.61,2.58-2.41,4.35-2.41s3.12.69,4.1,2.07Zm.67,20.89c1.21-.58,2.2-1.37,2.97-2.35l-1.15-1.98c-.72.9-1.58,1.59-2.59,2.08-1.01.49-2.21.73-3.6.73-2,0-3.59-.82-4.76-2.45-1.17-1.63-1.76-3.68-1.76-6.14v-2.11h14.51v-2.78c0-3.19-.73-5.73-2.2-7.63-1.47-1.89-3.53-2.84-6.19-2.84-2.45,0-4.55,1.06-6.29,3.18-1.74,2.12-2.61,4.78-2.61,7.98v4.22c0,3.19.87,5.81,2.6,7.87,1.73,2.05,3.97,3.08,6.7,3.08,1.7,0,3.16-.29,4.37-.87h0Zm-20.24.38v-22.97h4.8v-2.39h-4.8v-3.66c0-1.77.31-3.12.95-4.08.63-.95,1.57-1.43,2.8-1.43.39,0,.75.03,1.07.08.32.05.64.13.95.22l.35-2.37c-.45-.14-.9-.25-1.35-.34-.45-.09-.89-.13-1.32-.13-1.97,0-3.51.7-4.61,2.1-1.1,1.4-1.65,3.38-1.65,5.94v3.66h-3.42v2.39h3.42v22.97h2.81,0Zm-10.22-36.56h-2.84v3.99h2.84v-3.99Zm0,11.2h-2.84v25.36h2.84v-25.36Zm-8.81-11.2h-2.84v36.56h2.84v-36.56Zm-18,0h-2.84v36.56h2.84v-36.56h0Zm-21.14,33.23c-.72-.86-1.08-1.97-1.08-3.33,0-1.59.57-2.93,1.72-4.02,1.15-1.09,2.68-1.63,4.61-1.63h4.5v5.49c-.5,1.39-1.36,2.53-2.57,3.43-1.21.9-2.6,1.35-4.16,1.35-1.3,0-2.31-.43-3.02-1.29Zm13.1,3.33c-.2-.81-.34-1.64-.42-2.48-.08-.85-.12-1.72-.12-2.63v-12.45c0-2.65-.72-4.7-2.15-6.13-1.44-1.43-3.33-2.15-5.67-2.15s-4.33.75-5.85,2.24c-1.52,1.49-2.25,3.19-2.17,5.1l.05.14,2.63.02c0-1.41.49-2.59,1.47-3.56.98-.97,2.22-1.45,3.74-1.45,1.63,0,2.89.51,3.8,1.52.91,1.02,1.36,2.42,1.36,4.22v3.12h-4.43c-2.83,0-5.07.7-6.73,2.1-1.66,1.4-2.48,3.28-2.48,5.64,0,2.22.57,3.98,1.71,5.29,1.14,1.3,2.76,1.96,4.85,1.96,1.5,0,2.86-.41,4.09-1.23,1.23-.82,2.22-1.86,2.99-3.13,0,.58.03,1.15.11,1.71.07.56.17,1.28.32,2.15h2.93,0Zm-27.7-31.83v6.47h-3.52v2.39h3.52v16.44c0,2.43.43,4.21,1.28,5.34.85,1.12,2.03,1.68,3.53,1.68.61,0,1.21-.06,1.82-.17.6-.12,1.09-.27,1.46-.46l-.38-2.16c-.45.09-.86.16-1.22.21-.36.05-.73.07-1.1.07-.77,0-1.38-.34-1.85-1.03-.47-.68-.7-1.85-.7-3.49v-16.43h4.41v-2.39h-4.41v-6.47h-2.84Zm-7.01-4.73h-2.84v3.99h2.84v-3.99Zm0,11.2h-2.84v25.36h2.84v-25.36Zm-22.95,11.44c0-2.78.5-5.04,1.5-6.77,1-1.73,2.49-2.6,4.48-2.6,1.39,0,2.55.42,3.46,1.25.91.84,1.64,1.92,2.17,3.27v12.56c-.55,1.31-1.29,2.34-2.23,3.08-.94.74-2.09,1.11-3.45,1.11-1.98,0-3.47-.77-4.45-2.3-.98-1.53-1.48-3.58-1.48-6.14v-3.47Zm-2.84,3.47c0,3.31.72,5.97,2.17,7.96,1.45,1.99,3.44,2.99,5.99,2.99,1.37,0,2.59-.3,3.63-.91,1.05-.61,1.93-1.48,2.65-2.62v3.07c0,2.5-.48,4.4-1.45,5.69-.97,1.3-2.46,1.95-4.48,1.95-1,0-1.97-.14-2.91-.41-.94-.27-1.79-.65-2.55-1.14l-.77,2.46c.89.5,1.91.9,3.06,1.21,1.15.31,2.22.46,3.22.46,2.78,0,4.93-.89,6.45-2.67,1.51-1.78,2.27-4.3,2.27-7.55v-25.38h-2.39l-.28,3.54c-.7-1.28-1.59-2.27-2.66-2.97-1.07-.69-2.32-1.04-3.74-1.04-2.56,0-4.57,1.09-6.02,3.26-1.45,2.17-2.18,5.05-2.18,8.65v3.47h0Zm-4.78-26.11h-2.84v3.99h2.84v-3.99Zm0,11.2h-2.84v25.36h2.84v-25.36Zm-22.92,12.91c0-3.23.48-5.85,1.45-7.85.97-2,2.45-3,4.43-3,1.39,0,2.55.43,3.47,1.28.92.85,1.64,1.96,2.16,3.32v12.42c-.55,1.35-1.29,2.39-2.21,3.14-.93.75-2.08,1.13-3.46,1.13-1.97,0-3.43-.89-4.4-2.68-.96-1.79-1.44-4.21-1.44-7.25v-.49h0Zm-2.86.49c0,3.78.71,6.8,2.14,9.06,1.43,2.26,3.41,3.39,5.94,3.39,1.42,0,2.66-.32,3.73-.97,1.06-.65,1.95-1.58,2.65-2.8l.24,3.28h2.48v-36.56h-2.81v14.51c-.7-1.2-1.57-2.13-2.61-2.79-1.04-.66-2.25-.99-3.64-.99-2.56,0-4.56,1.21-5.98,3.65-1.42,2.43-2.13,5.67-2.13,9.74v.49Zm-11.21-13.62c-.17-.06-.41-.12-.7-.18-.3-.05-.59-.08-.89-.08-1.31,0-2.46.41-3.43,1.23-.98.82-1.76,1.97-2.36,3.43l-.33-4.19h-2.49v25.36h2.81v-18c.41-1.55,1.04-2.76,1.9-3.64.86-.88,1.94-1.33,3.26-1.33l1.85.14.37-2.74h0Zm-18.12,25.57h2.53v-25.36h-2.81v18.47c-.44,1.52-1.16,2.71-2.17,3.58-1.01.87-2.32,1.3-3.92,1.3s-2.7-.66-3.51-1.98c-.81-1.32-1.21-3.52-1.21-6.6v-14.77h-2.81v14.72c0,3.81.63,6.62,1.89,8.43,1.26,1.81,3.01,2.71,5.26,2.71,1.49,0,2.78-.39,3.89-1.16,1.11-.77,2-1.87,2.67-3.29l.19,3.96h0Zm-33.91-14.51c0-2.49.56-4.58,1.69-6.28s2.73-2.55,4.81-2.55,3.66.85,4.8,2.55c1.14,1.7,1.71,3.79,1.71,6.28v3.73c0,2.52-.57,4.63-1.71,6.33-1.14,1.7-2.73,2.55-4.78,2.55s-3.7-.85-4.83-2.54c-1.13-1.69-1.69-3.81-1.69-6.34v-3.73Zm-2.84,3.71c0,3.33.84,6.04,2.53,8.14,1.69,2.1,3.96,3.15,6.82,3.15s5.11-1.05,6.8-3.15c1.69-2.1,2.53-4.82,2.53-8.14v-3.73c0-3.3-.85-6-2.54-8.12-1.69-2.12-3.97-3.18-6.81-3.18s-5.11,1.06-6.8,3.19c-1.69,2.13-2.53,4.83-2.53,8.11v3.73h0Zm-16.81-14.55h-3.12l8.01,25.03-1.05,3.35c-.36,1.31-.84,2.41-1.43,3.3-.59.89-1.37,1.34-2.32,1.34-.17,0-.44-.02-.8-.06-.36-.04-.62-.07-.77-.11l-.31,2.42c.2.06.52.13.94.21.42.08.77.12,1.05.12,1.67,0,2.96-.61,3.85-1.83.9-1.22,1.62-2.67,2.17-4.36l9.05-29.41h-3.14l-6,20.93h-.14l-.66-2.55-5.34-18.38Zm-18.21,4.09c.99,1.38,1.48,3.12,1.48,5.22v1.08h-11.7c.05-2.36.64-4.34,1.77-5.95,1.13-1.61,2.58-2.41,4.35-2.41s3.12.69,4.1,2.07h0Zm.67,20.89c1.21-.58,2.2-1.37,2.97-2.35l-1.15-1.98c-.72.9-1.58,1.59-2.59,2.08-1.01.49-2.21.73-3.6.73-2,0-3.59-.82-4.76-2.45-1.17-1.63-1.76-3.68-1.76-6.14v-2.11h14.51v-2.78c0-3.19-.73-5.73-2.2-7.63-1.47-1.89-3.53-2.84-6.19-2.84-2.45,0-4.55,1.06-6.29,3.18-1.74,2.12-2.61,4.78-2.61,7.98v4.22c0,3.19.87,5.81,2.6,7.87,1.73,2.05,3.97,3.08,6.7,3.08,1.7,0,3.16-.29,4.37-.87h0Zm-15.04-25.19c-.17-.06-.41-.12-.7-.18-.3-.05-.59-.08-.89-.08-1.31,0-2.46.41-3.43,1.23-.98.82-1.76,1.97-2.36,3.43l-.33-4.19h-2.48v25.36h2.81v-18c.41-1.55,1.04-2.76,1.9-3.64.86-.88,1.95-1.33,3.26-1.33l1.85.14.37-2.74Zm-18.12,25.57h2.53v-25.36h-2.81v18.47c-.44,1.52-1.16,2.71-2.17,3.58-1.01.87-2.32,1.3-3.93,1.3s-2.7-.66-3.5-1.98c-.8-1.32-1.21-3.52-1.21-6.6v-14.77h-2.81v14.72c0,3.81.63,6.62,1.89,8.43,1.26,1.81,3.01,2.71,5.26,2.71,1.48,0,2.78-.39,3.89-1.16,1.11-.77,2-1.87,2.67-3.29l.19,3.96h0Zm-30.82-4.36c-1-1.65-1.5-3.74-1.5-6.3v-3.95c0-2.52.5-4.61,1.5-6.26,1-1.65,2.59-2.48,4.78-2.48,1.58,0,2.89.6,3.95,1.79,1.05,1.2,1.58,2.8,1.58,4.82h2.51l.05-.12c.05-2.69-.7-4.85-2.24-6.5-1.54-1.65-3.49-2.47-5.85-2.47-2.92,0-5.17,1.05-6.74,3.15-1.57,2.1-2.36,4.78-2.36,8.05v3.94c0,3.28.79,5.96,2.36,8.05,1.57,2.09,3.82,3.13,6.74,3.13,2.19,0,4.09-.79,5.72-2.37,1.62-1.58,2.41-3.54,2.37-5.88l-.07-.14h-2.48c0,1.87-.55,3.34-1.66,4.4-1.11,1.07-2.4,1.6-3.87,1.6-2.19,0-3.78-.82-4.78-2.47Zm-11.49-16.91c.98,1.38,1.48,3.12,1.48,5.22v1.08h-11.69c.05-2.36.64-4.34,1.77-5.95,1.13-1.61,2.58-2.41,4.35-2.41s3.12.69,4.1,2.07Zm.67,20.89c1.21-.58,2.2-1.37,2.96-2.35l-1.15-1.98c-.72.9-1.58,1.59-2.59,2.08-1.01.49-2.21.73-3.6.73-2,0-3.59-.82-4.76-2.45-1.17-1.63-1.76-3.68-1.76-6.14v-2.11h14.51v-2.78c0-3.19-.73-5.73-2.2-7.63-1.47-1.89-3.53-2.84-6.19-2.84-2.45,0-4.55,1.06-6.29,3.18-1.74,2.12-2.61,4.78-2.61,7.98v4.22c0,3.19.87,5.81,2.6,7.87,1.73,2.05,3.97,3.08,6.7,3.08,1.7,0,3.16-.29,4.37-.87Zm-21.04-2.72c-.91.8-2.15,1.2-3.73,1.2-1.45,0-2.72-.41-3.8-1.24-1.08-.82-1.66-2.15-1.76-3.97h-2.63l-.05.14c-.08,2.02.62,3.77,2.1,5.25,1.48,1.47,3.52,2.21,6.13,2.21,2.37,0,4.29-.62,5.73-1.85,1.44-1.23,2.17-2.86,2.17-4.87,0-1.83-.63-3.34-1.88-4.54-1.25-1.19-3.14-2.3-5.67-3.32-2.16-1.03-3.56-1.89-4.22-2.57-.66-.68-.98-1.58-.98-2.71,0-1.06.41-1.99,1.24-2.79.83-.8,2.03-1.2,3.61-1.2s2.77.51,3.68,1.52c.91,1.02,1.36,2.21,1.36,3.58h2.65l.05-.14c.06-2.13-.61-3.9-2.02-5.32-1.41-1.42-3.31-2.13-5.72-2.13-2.27,0-4.11.64-5.53,1.92-1.42,1.28-2.13,2.83-2.13,4.64s.6,3.22,1.79,4.32c1.2,1.1,3.08,2.19,5.66,3.25,2.01.92,3.4,1.81,4.16,2.65.76.84,1.14,1.84,1.14,3s-.45,2.14-1.36,2.94h0"/><path id="path16" class="cls-1" d="m367.5,56.86h-23.26v69.5h23.68v-49.63l8.78.05h7.94v-19.9h-2.09c-4.09,0-15.04-.02-15.04-.02"/><path id="path18" class="cls-1" d="m424.18,106.85c0,2.04-1.16,3.06-3.48,3.06h-3.76c-2.32,0-3.48-1.02-3.48-3.06v-30.5c0-2.04,1.16-3.06,3.48-3.06h3.76c2.32,0,3.48,1.02,3.48,3.06v30.5Zm3.48-50h-17.69c-7.06,0-12.12,1.49-15.18,4.46-3.06,2.97-4.6,7.24-4.6,12.81v34.96c0,5.57,1.53,9.84,4.6,12.81,3.06,2.97,8.13,4.46,15.18,4.46h17.69c7.06,0,12.12-1.48,15.18-4.46,3.06-2.97,4.6-7.24,4.6-12.81v-34.96c0-5.57-1.53-9.84-4.6-12.81-3.06-2.97-8.13-4.46-15.18-4.46"/><path id="path20" class="cls-1" d="m263.02,49.89h24.51v-16.71h-24.51v16.71"/><path id="path22" class="cls-1" d="m263.44,126.35h23.68V56.86h-23.68v69.5"/><path id="path24" class="cls-1" d="m230.03,82.94l-20.21-49.77h-21.2v93.15h22.61v-48.89l20.21,48.89h21.2V33.18h-22.61v49.77"/><path id="path26" class="cls-1" d="m627.31,56.86l-7.52,42.34-9.44-42.34h-23.85l22.1,71.9-9.02,34.24h21.48l30.06-106.13h-23.82"/><path id="path28" class="cls-1" d="m560.99,84.99h-13.09v-8.77c0-2.04,1.16-3.06,3.48-3.06h6.13c2.32,0,3.48,1.02,3.48,3.06v8.77Zm1.95-28.13h-16.99c-13.65,0-20.47,5.76-20.47,17.27v34.96c0,11.51,6.83,17.27,20.47,17.27h16.99c13.65,0,20.47-5.76,20.47-17.27v-6.27h-22.42v3.9c0,2.23.03,3.34.03,3.34h-9.64c-2.32,0-3.48-1.02-3.48-3.07v-9.19h35.52v-23.68c0-11.51-6.83-17.27-20.47-17.27"/><path id="path30" class="cls-1" d="m324.98,33.43h-23.68v23.61h-7.66v17.41h7.66v52.06s6.82.03,20.47.03h11.84v-17.41h-8.63v-34.68h8.77v-17.41h-8.77v-23.61"/><path id="path32" class="cls-1" d="m494.65,56.86l-13.09,31.61v-55.29h-23.68v93.17h23.68v-32.45l12.95,32.45h24.65l-14.9-35.24,14.9-34.26h-24.51"/><path id="path34" class="cls-2" d="m96.49,113.25l-38.24,22.08c-2.59,1.5-5.94.6-7.43-1.99l-20.45-35.42c-1.5-2.59-.6-5.94,1.99-7.44l38.24-22.08,25.89,44.85h0"/><path id="path36" class="cls-2" d="m114.75,89.43l-3.79,2.21c-.62.36-1.42.15-1.79-.47l-3.21-5.51c-.36-.62-.15-1.43.47-1.79l3.79-2.21c.62-.36,1.42-.15,1.79.47l3.21,5.51c.36.62.15,1.42-.47,1.79h0Zm-18.96-21.24c-.36-.62-.15-1.43.47-1.79l3.79-2.21c.62-.36,1.42-.15,1.79.47l3.21,5.51c.36.62.15,1.42-.47,1.78l-3.79,2.21c-.62.36-1.42.15-1.79-.47,0,0-3.21-5.51-3.21-5.51Zm-19.15,4.01l19.38,33.56,38.34-22.14-19.38-33.56-38.34,22.14h0"/><path id="path38" class="cls-2" d="m82.22,14.66c-.17,0-.34.04-.5.1L15.73,42.65c-.62.26-1.06,1-1.06,1.79v57.98c0,.28.05.55.14.78,3.33,8.32,22.08,50.44,66.91,68.38.33.13.67.13,1,0,44.83-17.94,63.58-60.06,66.88-68.32.11-.28.17-.57.17-.84v-57.98c0-.79-.43-1.53-1.04-1.78L82.71,14.76c-.16-.07-.32-.1-.49-.1Zm0,171.69c-2.04,0-4.04-.39-5.95-1.15C25.88,165.04,4.91,117.95,1.22,108.71c-.8-1.95-1.22-4.08-1.22-6.29v-57.98c0-6.71,3.93-12.71,10.01-15.3L76.02,1.25c3.96-1.67,8.44-1.67,12.39,0l66,27.89c6.08,2.54,10.02,8.55,10.02,15.3v57.98c0,2.12-.41,4.23-1.2,6.25-3.71,9.27-24.68,56.36-75.07,76.53-1.91.76-3.91,1.15-5.95,1.15h0"/></g></svg>