<?xml version="1.0" encoding="utf-8"?>
<!-- Generator: Adobe Illustrator 27.1.1, SVG Export Plug-In . SVG Version: 6.00 Build 0)  -->
<svg version="1.1" id="Layer_1" xmlns="http://www.w3.org/2000/svg" xmlns:xlink="http://www.w3.org/1999/xlink" x="0px" y="0px"
	 viewBox="0 0 2009.7 512" style="enable-background:new 0 0 2009.7 512;" xml:space="preserve">
<style type="text/css">
	.st0{fill:#0F172A;}
	.st1{fill:#06B6D4;}
</style>
<g>
	<path class="st0" d="M0,253.3c0-80,58-138.5,137.4-138.5c35.4,0,67.6,15.6,89.1,39.2L227,0.5h53.1v252.8
		c0,77.8-60.6,137.4-140.1,137.4C60.1,390.7,0,329,0,253.3z M227,252.8c0-47.8-37.6-87.4-86.9-87.4c-48.8,0-86.9,39.7-86.9,87.4
		c0,48.3,38.1,88,86.9,88C189.5,340.8,227,301.1,227,252.8z"/>
	<path class="st0" d="M557.8,248V121.3H611v133.1c0,76.2-46.2,136.3-128.8,136.3c-81.6,0-127.7-60.7-127.7-136.9V121.3h53.1v127.2
		c0,48.3,26.3,90.7,74.6,90.7C531,339.2,557.8,296.8,557.8,248z"/>
	<path class="st0" d="M668.6,252.2c0-75.7,61.7-137.4,140.6-137.4c79.4,0,139.5,62.3,139.5,137.4c0,76.2-60.6,138.5-139.5,138.5
		C729.8,390.7,668.6,328.5,668.6,252.2z M895.6,252.8c0-48.3-37.6-88-86.4-88c-49.4,0-87.5,39.7-87.5,88c0,47.8,38.1,87.5,87.5,87.5
		C858,340.3,895.6,300.5,895.6,252.8z"/>
	<g>
		<path class="st1" d="M1027.2,121.3h-59.6l113.3,123.5c2.7,2.1,4.8,4.9,4.8,7.5c0,2.7-2.1,4.9-4.8,7.5L968.2,384.3h63.9l84.8-91.8
			c10.8-12.3,16.6-23.1,16.6-39.2c0-16.6-9.7-30.1-20.4-41.3L1027.2,121.3z"/>
		<path class="st0" d="M1290.2,252.2c0-2.7,1.6-4.8,4.8-7.5l113.3-123.5h-64.9l-84.3,91.8c-5.4,5.3-9.7,11.2-12.3,17.7h-32.2V0
			h-53.1v384.3h53.1V272.6h31.7c2.7,6.9,7,13.4,12.3,19.8l83.7,91.8h65.5l-112.7-124.5C1291.8,257.1,1290.2,254.9,1290.2,252.2z"/>
	</g>
	<path class="st0" d="M1427.2,251.2c0-75.7,54.2-137.4,133.1-137.4c79.4,0,128.8,57.4,128.8,130.9v21.5h-210.4
		c5.9,45.1,40.2,76.8,87.5,76.8c32.2,0,61.2-14,76.8-43l40.8,20.9c-23.1,45.1-65.5,69.2-117,69.2
		C1486.8,390.2,1427.2,332.2,1427.2,251.2z M1636,231.8c-2.1-41.9-32.7-70.3-76.2-70.3c-44.5,0-73.5,31.1-78.9,70.3H1636z"/>
	<path class="st0" d="M1747.3,441.7l44-24.1c15,28.4,44.6,45.1,80.5,45.1c55.8,0,84.8-41.9,84.8-98.7v-23.1
		c-15.6,29.5-43.5,47.2-83.2,47.2c-80.5,0-119.7-53.1-119.7-130.4V121.3h52.6v133.6c0,49.4,25.8,83.2,73.5,83.2
		c46.2,0,76.2-38.6,76.2-86.9V121.3h53.7v242.1c0,88-51.5,148.7-136.8,148.7C1817,512,1770.9,488.4,1747.3,441.7z"/>
</g>
</svg>
