<?xml version="1.0" encoding="UTF-8" standalone="no"?><!DOCTYPE svg PUBLIC "-//W3C//DTD SVG 1.1//EN" "http://www.w3.org/Graphics/SVG/1.1/DTD/svg11.dtd"><svg width="100%" height="100%" viewBox="0 0 1850 1263" version="1.1" xmlns="http://www.w3.org/2000/svg" xmlns:xlink="http://www.w3.org/1999/xlink" xml:space="preserve" xmlns:serif="http://www.serif.com/" style="fill-rule:evenodd;clip-rule:evenodd;stroke-linejoin:round;stroke-miterlimit:2;"><g><g><path d="M1025,22.5l0,216.667l-285.833,140.833l0,-215.833l285.833,-141.667Z" style="fill:#00517d;fill-rule:nonzero;"/><path d="M1382.5,164.167l0,215.833l-285.833,-140.833l0,-216.667l285.833,141.667Z" style="fill:#00517d;fill-rule:nonzero;"/><path d="M1025,588.75l0,216.667l-285.833,-140.833l0,-216.667l285.833,140.833Z" style="fill:#00517d;fill-rule:nonzero;"/><path d="M1382.5,447.917l0,216.667l-285.833,140.833l0,-216.667l285.833,-140.833Z" style="fill:#00517d;fill-rule:nonzero;"/><path d="M667.5,165.833l-200,-140.417l0,786.25l200,-140.417l0,-505.417Z" style="fill:#00517d;fill-rule:nonzero;"/></g><g><path d="M127.5,1239.583c-4.167,-6.667 -9.167,-13.75 -15,-20.833c-5.833,-7.5 -11.667,-14.583 -17.917,-21.25c-6.25,-6.667 -12.917,-13.333 -19.583,-19.583c-6.667,-6.25 -13.333,-11.667 -19.583,-15.833l0,77.917l-31.667,0l0,-173.333l31.667,0l0,71.667c5.417,-5.417 11.25,-11.25 17.083,-17.5c5.833,-6.25 12.083,-12.5 17.917,-19.167c5.833,-6.25 11.667,-12.5 16.667,-18.75c5.417,-5.833 10,-11.25 14.583,-16.25l37.917,0c-5.417,6.25 -11.25,12.917 -17.5,19.583c-6.25,6.667 -12.5,13.75 -19.167,20.833c-6.667,7.083 -12.917,13.75 -19.583,20.417c-6.667,6.667 -12.917,13.333 -19.167,19.583c7.083,5.417 14.167,11.667 21.25,18.75c7.083,7.083 14.583,14.583 21.25,22.917c7.083,7.917 13.75,16.667 20,25.417c6.25,8.75 12.083,17.5 17.5,26.25l-36.667,0l0,-0.833Z" style="fill-rule:nonzero;"/><path d="M276.667,1241.667c-11.667,0 -22.083,-1.667 -30.417,-5c-8.333,-3.333 -15.417,-8.333 -21.25,-14.583c-5.417,-6.25 -9.583,-13.333 -12.5,-21.667c-2.5,-8.333 -4.167,-17.5 -4.167,-27.5l0,-108.333l31.667,0l0,105.417c0,7.917 0.833,14.583 2.5,20c1.667,5.417 4.167,10 7.5,13.75c3.333,3.75 7.083,6.25 11.667,7.917c4.583,1.667 9.583,2.5 15,2.5c5.417,0 10.417,-0.833 15,-2.5c4.583,-1.667 8.333,-4.167 11.667,-7.917c3.333,-3.333 5.833,-7.917 7.5,-13.75c1.667,-5.417 2.5,-12.083 2.5,-20l0,-105.417l31.667,0l0,108.333c0,10 -1.25,19.167 -4.167,27.5c-2.917,8.333 -7.083,15.417 -12.5,21.667c-5.417,6.25 -12.917,10.833 -21.25,14.583c-8.333,3.333 -18.333,5 -30.417,5Z" style="fill-rule:nonzero;"/><path d="M466.25,1241.667c-9.167,0 -18.333,-0.417 -27.917,-0.833c-9.167,-0.417 -17.5,-1.667 -24.583,-3.75l0,-168.333c3.75,-0.833 7.5,-1.25 11.667,-1.667c4.167,-0.417 8.333,-1.25 12.917,-1.25c4.167,-0.417 8.75,-0.417 12.917,-0.833c4.167,0 8.333,-0.417 12.083,-0.417c10.417,0 20.417,0.833 29.167,2.5c9.167,1.667 16.667,4.167 23.333,7.917c6.667,3.75 11.667,8.333 15.417,14.583c3.75,5.833 5.417,13.333 5.417,22.083c0,8.333 -2.083,15 -5.833,20.833c-3.75,5.833 -9.583,10.417 -16.25,14.167c10.417,3.333 18.333,8.75 23.333,15.417c5,6.667 7.5,15.417 7.5,25.833c0,17.917 -6.667,31.25 -19.583,40c-12.917,9.167 -32.917,13.75 -59.583,13.75Zm-21.25,-105l22.083,0c12.083,0 21.25,-1.667 28.333,-5c6.667,-3.333 10.417,-9.583 10.417,-18.333c0,-8.333 -3.75,-14.167 -10.417,-17.917c-7.083,-3.333 -16.25,-5.417 -27.5,-5.417c-5,0 -9.167,0 -12.917,0.417c-3.75,0.417 -7.083,0.417 -9.583,0.833l-0.417,45.417Zm0,25l0,52.917c3.333,0.417 7.083,0.417 11.25,0.833c4.167,0 7.5,0.417 10.833,0.417c6.667,0 12.5,-0.417 18.333,-1.25c5.417,-0.833 10.417,-2.083 14.583,-4.167c4.167,-2.083 7.5,-5 9.583,-8.333c2.5,-3.333 3.75,-7.917 3.75,-13.333c0,-10 -3.75,-16.667 -10.833,-20.417c-7.083,-3.75 -17.083,-5.833 -29.583,-5.833l-27.917,0l0,-0.833Z" style="fill-rule:nonzero;"/><path d="M606.667,1239.583l0,-173.333l111.25,0l0,26.667l-79.583,0l0,42.917l70.833,0l0,26.25l-70.833,0l0,50.417l85.833,0l0,26.667l-117.5,0.417Z" style="fill-rule:nonzero;"/><path d="M834.583,1065.417c25,0 44.167,4.583 57.5,13.75c13.333,9.167 20,23.333 20,42.083c0,23.333 -11.667,39.583 -34.583,47.917c3.333,3.75 6.667,8.333 10.833,14.167c4.167,5.417 7.917,11.667 12.083,17.917c4.167,6.25 8.333,12.917 12.083,19.583c3.75,6.667 7.083,13.333 10.417,20l-35.417,0c-3.333,-5.833 -6.667,-12.083 -10.417,-17.917c-3.75,-6.25 -7.5,-12.083 -11.25,-17.917c-3.75,-5.833 -7.5,-11.25 -11.25,-16.25c-3.75,-5 -7.083,-9.583 -10.417,-13.75c-2.5,0 -4.167,0.417 -5.833,0.417l-20,0l0,65.417l-31.667,0l0,-170.833c7.5,-1.667 15.833,-2.917 24.583,-3.333c8.75,-0.833 16.25,-1.25 23.333,-1.25Zm2.083,27.083c-6.667,0 -12.917,0.417 -18.333,0.833l0,55.833l13.75,0c7.5,0 14.583,-0.417 20.417,-1.25c5.833,-0.833 10.833,-2.5 14.583,-4.583c3.75,-2.083 7.083,-5 8.75,-8.75c2.083,-3.75 2.917,-8.333 2.917,-14.167c0,-5.417 -0.833,-10 -2.917,-13.333c-2.083,-3.75 -5,-6.667 -8.75,-8.75c-3.75,-2.083 -8.333,-3.75 -13.333,-4.583c-5,-0.833 -10.833,-1.25 -17.083,-1.25Z" style="fill-rule:nonzero;"/><path d="M1023.75,1066.25c3.75,6.25 7.917,14.167 12.083,23.333c4.583,9.167 9.167,18.75 13.75,28.75c4.583,10 9.167,20.417 13.75,30.833c4.583,10.417 8.75,20 12.5,28.75c3.75,-8.75 7.917,-18.333 12.5,-28.75c4.583,-10.417 9.167,-20.833 13.75,-30.833c4.583,-10 9.167,-19.583 13.75,-28.75c4.583,-9.167 8.75,-17.083 12.083,-23.333l28.333,0c1.667,12.5 2.917,26.25 4.167,40.417c1.25,14.167 2.5,28.75 3.75,43.75c1.25,15 2.083,30 2.917,45c0.833,15 1.667,30 2.5,44.167l-30.833,0c-0.833,-20 -1.667,-40.833 -2.5,-62.083c-0.833,-21.25 -2.5,-42.083 -4.167,-62.083c-1.667,3.75 -4.167,8.333 -6.667,13.75c-2.5,5.417 -5,11.25 -7.917,17.5c-2.917,6.25 -5.833,12.5 -8.75,19.167c-2.917,6.667 -5.833,13.333 -8.333,19.583c-2.917,6.25 -5.417,12.083 -7.5,17.5c-2.083,5.417 -4.167,10 -5.833,13.75l-23.333,0c-1.667,-3.75 -3.75,-8.333 -5.833,-14.167c-2.5,-5.417 -5,-11.25 -7.5,-17.5c-2.5,-6.25 -5.417,-12.5 -8.333,-19.167c-2.917,-6.667 -5.833,-12.917 -8.75,-19.167c-2.917,-6.25 -5.417,-12.083 -7.917,-17.5c-2.5,-5.417 -4.583,-10 -6.667,-13.75c-1.667,20 -3.333,40.833 -4.167,62.083c-0.833,21.25 -1.667,42.083 -2.5,62.083l-30.833,0c0.833,-14.167 1.667,-29.167 2.5,-44.583c0.833,-15.417 2.083,-30.417 2.917,-45.833c0.833,-15.417 2.5,-29.583 3.75,-43.75c1.25,-14.167 2.917,-27.083 4.167,-39.167l29.167,0Z" style="fill-rule:nonzero;"/><path d="M1350.417,1239.583c-2.5,-6.667 -4.583,-13.75 -7.083,-20.417c-2.5,-6.667 -5,-13.333 -7.083,-20.417l-73.75,0c-2.5,7.083 -4.583,13.75 -7.083,20.833c-2.5,7.083 -5,13.333 -7.083,20l-32.917,0c6.667,-18.333 12.5,-35.417 18.333,-51.25c5.833,-15.833 11.667,-30.417 17.083,-44.583c5.417,-14.167 11.25,-27.5 16.667,-40c5.417,-12.5 11.25,-25 17.083,-37.5l30,0c5.833,12.5 11.667,25 17.083,37.5c5.417,12.5 10.833,25.833 16.667,40c5.417,14.167 11.25,28.75 17.083,44.583c5.833,15.833 12.083,32.917 18.75,51.25l-33.75,0Zm-51.25,-139.583c-3.75,8.75 -8.333,19.583 -13.333,32.083c-5,12.5 -10,26.25 -15.417,41.25l57.083,0c-5.417,-15 -10.417,-28.75 -15.417,-41.667c-5,-12.5 -9.167,-23.333 -12.917,-31.667Z" style="fill-rule:nonzero;"/><path d="M1541.25,1066.25l0,27.083l-53.333,0l0,145.833l-31.667,0l0,-145.833l-53.333,0l0,-27.083l138.333,0Z" style="fill-rule:nonzero;"/><rect x="1593.75" y="1066.25" width="31.667" height="173.333" style="fill-rule:nonzero;"/><path d="M1771.25,1243.75c-12.917,0 -24.583,-2.083 -35,-5.833c-10.417,-3.75 -19.167,-10 -26.25,-17.5c-7.083,-7.917 -12.5,-17.083 -16.667,-28.333c-3.75,-11.25 -5.833,-24.167 -5.833,-38.333c0,-14.583 2.083,-27.5 6.667,-38.333c4.583,-11.25 10.417,-20.833 18.333,-28.333c7.5,-7.917 16.667,-13.75 27.083,-17.5c10.417,-4.167 21.25,-5.833 33.333,-5.833c7.083,0 13.75,0.417 19.583,1.667c5.833,1.25 10.833,2.5 15.417,3.75c4.167,1.25 7.917,2.917 10.833,4.167c2.917,1.667 5,2.5 5.833,3.333l-9.167,25.833c-4.167,-2.5 -9.583,-5 -17.083,-7.083c-7.5,-2.083 -15.417,-3.333 -24.167,-3.333c-7.5,0 -14.583,1.25 -20.833,3.75c-6.667,2.5 -12.083,6.25 -16.667,11.667c-4.583,5 -8.333,11.667 -11.25,19.583c-2.5,7.917 -4.167,17.083 -4.167,27.083c0,9.167 1.25,17.5 3.333,25.417c2.083,7.5 5.417,14.167 9.583,20c4.167,5.417 10,10 16.667,12.917c6.667,2.917 14.583,4.583 24.167,4.583c11.25,0 20.417,-1.25 27.083,-3.333c6.667,-2.083 12.5,-4.167 16.25,-6.25l8.333,25.833c-2.083,1.25 -4.583,2.5 -7.917,4.167c-3.333,1.25 -7.5,2.5 -12.083,3.75c-4.583,1.25 -10,2.083 -15.833,2.917c-6.667,-0.833 -12.917,-0.417 -19.583,-0.417Z" style="fill-rule:nonzero;"/></g></g></svg>