<svg width="1196" height="236" viewBox="0 0 1196 236" fill="none" xmlns="http://www.w3.org/2000/svg">
<path d="M371.037 45.5696H412.303V190H379.29L333.898 123.975V190H292.632V45.5696H325.645L371.037 111.595V45.5696ZM537.067 190L532.116 171.43H490.437L485.485 190H441.124L487.136 45.5696H535.417L581.428 190H537.067ZM499.309 138.418H523.243L511.276 94.0569L499.309 138.418ZM701.172 45.5696V85.5974H667.127V190H625.862V85.5974H591.817V45.5696H701.172ZM808.629 189.794L785.726 144.401H775.41V189.794H734.144V45.3633H791.916C807.735 45.3633 820.802 50.0401 831.119 59.3936C841.435 68.6097 846.593 80.8519 846.593 96.1202C846.593 104.649 844.599 112.351 840.61 119.229C836.758 126.107 831.325 131.678 824.31 135.942L852.783 189.794H808.629ZM775.41 83.3278V110.151H791.091C795.493 110.288 798.931 109.188 801.407 106.849C804.021 104.511 805.328 101.21 805.328 96.9455C805.328 92.6814 804.021 89.3801 801.407 87.0418C798.931 84.5658 795.493 83.3278 791.091 83.3278H775.41ZM1007.37 171.637C992.654 186.08 974.566 193.301 953.108 193.301C931.649 193.301 913.492 186.08 898.637 171.637C883.919 157.056 876.559 139.105 876.559 117.785C876.559 96.4641 883.919 78.5823 898.637 64.1392C913.492 49.5586 931.649 42.2683 953.108 42.2683C974.566 42.2683 992.654 49.5586 1007.37 64.1392C1022.23 78.5823 1029.66 96.4641 1029.66 117.785C1029.66 139.105 1022.23 157.056 1007.37 171.637ZM927.729 142.957C934.469 149.559 942.929 152.861 953.108 152.861C963.286 152.861 971.677 149.559 978.28 142.957C985.02 136.217 988.39 127.826 988.39 117.785C988.39 107.743 985.02 99.4215 978.28 92.819C971.677 86.0789 963.286 82.7088 953.108 82.7088C942.929 82.7088 934.469 86.0789 927.729 92.819C921.127 99.4215 917.825 107.743 917.825 117.785C917.825 127.826 921.127 136.217 927.729 142.957ZM1144.17 45.5696H1185.43V190H1152.42L1107.03 123.975V190H1065.76V45.5696H1098.77L1144.17 111.595V45.5696Z" fill="#1A1A1A"/>
<path d="M66.1385 220.988H15V15H111.542V86.6897L66.1385 132.093V220.988Z" stroke="#1A1A1A" stroke-width="29.4115"/>
<path d="M156.945 15.0002L208.084 15.0002L208.084 220.988L111.542 220.988L111.542 149.299L156.945 103.895L156.945 15.0002Z" stroke="#1A1A1A" stroke-width="29.4115"/>
</svg>
